<svg width="489" height="548" viewBox="0 0 489 548" fill="none" xmlns="http://www.w3.org/2000/svg">
<path fill-rule="evenodd" clip-rule="evenodd" d="M417.041 62.278C404.752 76.7824 392.407 91.2525 379.929 105.954C396.404 120.39 406.05 140.021 417.529 158.211C426.223 171.952 435.751 185.085 444.791 198.578C446.695 201.39 448.646 201.553 451.581 200.524C462.753 196.564 473.988 192.869 485.231 189.183C486.341 188.814 487.686 189.286 488.906 189.38L489 191.009C487.757 191.506 486.498 192.072 485.247 192.5C473.768 196.409 462.32 200.438 450.747 204.099C447.348 205.179 445.861 206.876 445.121 210.674C438.961 243.206 442.139 275.189 448.827 307.207C450.747 316.448 453.776 321.943 463.414 322.508C470.054 322.869 476.585 325.209 483.146 326.675C483.272 327.163 483.39 327.652 483.485 328.158C482.407 328.561 481.227 329.418 480.243 329.221C472.112 327.627 464.007 325.881 455.932 323.983C452.981 323.289 450.66 323.743 448.158 325.68C431.022 338.984 419.008 356.661 409.85 376.626C403.737 389.913 398.662 403.714 393.115 417.267C392.344 419.17 391.439 421.013 390.424 423.328C402.706 435.363 415.239 447.639 427.796 459.914C426.349 463.515 424.956 461.912 423.398 460.403C413.87 451.102 404.311 441.861 394.814 432.56C386.837 424.776 386.868 424.759 377.238 430.297C364.161 437.832 350.975 445.119 338.064 452.937C327.088 459.546 317.521 467.99 309.638 478.602C307.993 480.831 307.592 482.64 308.56 485.451C313.658 500.024 318.552 514.675 323.493 529.29C323.587 529.573 323.768 529.839 323.8 530.148C323.926 531.974 324.012 533.842 324.106 535.685C323.013 534.271 321.51 533.054 320.959 531.451C315.787 516.913 310.798 502.299 305.995 487.612C304.87 484.166 303.351 483.12 300.015 483.163C277.828 483.377 256.357 488.503 234.862 493.698C222.989 496.57 211.101 499.613 199.236 502.45C196.821 503.008 195.79 504.191 195.24 506.737C192.58 518.986 189.74 531.159 186.963 543.358C186.593 544.926 186.2 546.487 185.861 547.969C182.258 548.278 183.084 546.186 183.54 544.223C186.561 530.859 189.709 517.529 192.423 504.062C193.068 500.976 192.887 497.178 191.809 494.238C182.006 467.218 162.47 453.674 136.42 449.516C126.986 448.016 117.49 447.056 108.056 445.659C105.523 445.256 103.965 446.027 102.289 448.016C91.1216 461.246 79.8862 474.407 68.5837 487.5C67.6946 488.477 66.1997 488.863 65.0117 489.523C64.7049 489.018 64.3665 488.529 64.0597 488.023C76.9157 472.884 89.7953 457.754 103.021 442.17C100.37 438.835 97.8598 435.5 95.1533 432.363C85.9951 422.042 76.5931 411.995 67.6159 401.468C53.6034 385.035 48.9299 376.188 38.922 349.143C37.0574 349.726 35.1062 350.283 33.1864 350.943C23.572 354.2 13.9496 357.518 4.33516 360.673C3.11565 361.093 1.62077 360.638 0.275373 360.57C1.37687 359.592 2.35247 358.195 3.60346 357.732C13.9811 354.038 24.3666 350.411 34.8387 347.017C37.7419 346.091 39.0873 344.419 39.8426 341.333C45.2163 319.808 44.1777 298.3 39.7246 276.895C36.7663 262.725 33.0999 248.752 29.4649 234.779C29.0715 233.322 26.9944 231.702 25.4209 231.325C17.1361 229.224 8.73327 227.536 0.369787 225.701L0 224.235C1.07002 223.858 2.22659 223.001 3.21007 223.172C9.28401 224.304 15.358 225.401 21.3454 227.03C25.0747 228.058 27.4193 227.296 30.2281 224.201C45.3107 207.485 57.0652 188.574 64.7914 166.869C70.7788 150.084 74.0439 132.691 75.0196 114.826C75.1061 112.795 74.0675 110.172 72.73 108.672C64.0597 98.9076 55.1455 89.3752 46.1919 79.6284C47.199 77.1167 48.45 78.1797 49.9763 79.7913C58.4342 88.758 66.8921 97.7418 75.468 106.554C76.5066 107.617 78.4027 108.654 79.6773 108.397C109.292 102.362 136.868 91.3125 160.031 69.9417C163.847 66.4356 167.207 62.3552 170.842 58.6519C172.824 56.6546 173.068 54.6058 172.305 51.8198C168.277 36.7325 164.437 21.568 160.519 6.42925C160.338 5.72632 160 4.98053 160.031 4.26902C160.071 2.83744 160.283 1.42301 160.432 0C161.251 1.06297 162.541 1.99735 162.879 3.21463C165.688 13.5614 168.34 23.9511 171.062 34.2979C172.407 39.4842 173.934 44.6447 175.067 49.8653C175.704 52.8742 177.23 54.3058 179.795 55.4202C204.799 66.2384 230.354 66.367 256.239 60.2635C263.076 58.6519 269.795 56.3888 276.569 54.6058C279.103 53.9543 280.212 52.617 280.778 49.8824C283.894 35.0009 287.167 20.1621 290.456 5.32342C290.763 4.089 291.746 3.02604 292.407 1.89449C292.895 2.12594 293.359 2.37454 293.855 2.62314C293.697 3.8747 293.611 5.15197 293.367 6.37782C290.338 20.5136 287.238 34.6151 284.39 48.828C284.051 50.6197 284.571 53.3628 285.696 54.6829C309.85 82.6973 339.771 98.7619 375.098 103.348C376.498 103.528 378.544 102.388 379.582 101.188C390.629 88.4494 401.557 75.5737 412.517 62.7838C413.689 61.4465 414.87 58.8319 417.073 62.278M105.263 439.547C111.251 432.543 116.955 425.985 122.455 419.239C123.186 418.339 123.312 416.144 122.824 414.944C120.654 409.105 118.281 403.357 115.712 397.714C105.578 375.52 91.9511 356.232 73.5483 341.016C72.2658 339.97 70.3775 338.539 69.2131 338.907C60.2674 341.625 51.3768 344.762 42.3445 347.814C46.4673 363.956 53.092 378.1 62.9189 390.144C76.538 406.817 90.8575 422.796 105.263 439.547ZM443.115 203.216C433.831 189.149 424.83 175.656 416.042 161.966C408.371 150.024 401.29 137.62 393.327 125.859C389.055 119.524 383.524 114.149 378.206 107.951C371.368 115.967 365.208 123.073 359.244 130.402C358.615 131.2 358.953 133.497 359.535 134.723C363.564 143.107 367.529 151.533 371.919 159.711C382.596 179.522 396.105 196.752 413.713 210.022C414.862 210.888 416.616 211.951 417.741 211.6C426.317 208.968 434.822 206.01 443.115 203.216ZM197.01 499.502C232.635 491.821 266.687 479.914 303.288 479.742C300.385 471.204 297.82 463.206 294.854 455.32C293.99 453.399 292.484 451.911 290.645 451.162C280.841 447.767 270.747 447.905 260.692 449.636C241.424 452.962 223.658 461.243 205.712 468.855C205.165 469.112 204.673 469.49 204.268 469.965C203.863 470.441 203.554 471.003 203.359 471.616C201.196 480.591 199.244 489.592 197.01 499.502ZM30.8418 228.118C31.8804 228.77 32.3052 229.199 32.8009 229.319C40.771 231.102 48.6939 232.893 56.7033 234.462C57.7418 234.659 59.3154 233.811 60.1494 232.928C84.335 207.382 96.8527 176.196 99.3783 140.218C99.4412 138.923 99.5907 137.106 98.922 136.377C92.4467 129.237 85.7984 122.284 78.4971 114.535C75.2005 159.103 60.2753 197.009 30.8182 228.118M81.2272 111.672C87.7339 118.873 93.8944 125.773 100.22 132.528C100.92 133.291 102.573 133.557 103.643 133.343C129.748 127.925 153.989 118.093 173.981 98.5819C182.376 90.3953 182.344 90.3524 179.355 78.9684C177.666 72.5386 175.966 66.1122 174.256 59.6892C148.883 89.5552 116.625 103.64 81.2272 111.638M71.6364 334.261C81.007 331.089 89.6773 328.226 98.2925 325.063C99.394 324.669 100.519 322.766 100.739 321.403C101.746 315.068 102.848 308.724 103.123 302.346C103.769 287.173 99.457 272.84 96.5616 258.199C94.6733 248.752 91.0699 243.66 81.6364 243.094C75.35 242.734 69.1502 240.651 62.494 239.237C63.3673 271.374 73.2257 301.746 71.6364 334.218M442.604 206.868C434.641 209.525 427.497 212.122 420.228 214.266C416.939 215.226 415.585 217.009 414.909 220.566C409.512 249.044 412.438 276.981 418.552 304.918C419.921 311.142 422.328 313.902 428.229 314.656C434.791 315.471 441.258 317.305 447.269 318.565C444.531 299.946 441.353 281.773 439.307 263.445C437.269 244.817 438.788 226.19 442.604 206.868ZM388.174 420.97C402.281 383.698 415.53 346.957 447.214 322.097C438.3 320.134 430.369 318.257 422.368 316.705C421.124 316.456 419.26 317.211 418.253 318.171C412.399 323.726 406.223 329.015 401.085 335.247C390.432 348.191 383.383 363.544 377.191 379.309C374.256 386.698 371.447 394.147 368.481 401.845L388.174 420.97ZM62.1321 235.611C72.2973 237.839 81.5813 239.931 90.9204 241.766C91.9275 241.963 93.4538 240.806 94.3429 239.837C112.997 219.632 122.95 195.209 124.964 167.023C125.059 165.66 124.933 163.783 124.17 162.9C117.482 155.279 110.645 147.864 103.839 140.398C103.438 140.552 103.013 140.715 102.651 140.878C99.6379 177.327 87.018 209.096 62.1321 235.602M279.173 57.066C244.956 68.2958 211.518 72.7363 177.262 57.769C179.425 66.2042 181.534 73.4564 183.092 80.8543C183.941 84.9776 185.995 87.0092 189.591 88.518C216.821 99.8763 243.816 96.3874 270.778 87.4378C271.317 87.1917 271.802 86.8248 272.202 86.3611C272.602 85.8973 272.908 85.3471 273.099 84.7461C275.153 75.9252 277.01 67.0443 279.173 57.066ZM282.682 56.3031C280.637 65.7927 278.749 74.1936 277.073 82.6459C276.989 83.3304 277.036 84.0263 277.211 84.6901C277.385 85.3539 277.684 85.9712 278.088 86.5034C298.174 110.12 322.989 124.222 352.604 128.636C353.894 128.817 355.751 128.817 356.49 128.002C362.556 121.247 368.402 114.278 374.933 106.666C338.355 101.445 307.915 85.209 282.682 56.3031ZM355.751 134.226C349.189 141.881 343.013 148.979 337.065 156.248C336.483 156.977 336.742 159.043 337.246 160.157C339.472 165.146 341.825 170.049 344.295 174.944C353.272 192.775 364.413 208.745 379.866 220.832C381.14 221.835 383.029 223.181 384.232 222.812C393.453 219.983 402.549 216.794 412.737 213.348C385.853 192.938 369.457 165.06 355.751 134.226ZM104.516 136.652C109.307 141.872 113.643 146.698 118.072 151.422C126.837 160.731 126.868 160.766 138.89 157.422C157.726 152.15 174.917 143.57 188.93 128.671C190.818 126.639 191.432 124.882 190.606 121.984C188.528 115.015 186.876 107.917 185.019 100.862C184.469 98.7019 183.8 96.5417 182.974 93.6956C161.298 118.29 134.217 129.897 104.516 136.643M412.305 217.026C403.595 219.94 395.814 222.735 387.899 225.127C384.807 226.078 383.414 227.656 382.737 231.102C378.095 255.396 380.786 279.252 386.719 302.869C387.041 304.249 388.977 305.767 390.44 306.161C395.57 307.558 400.81 308.493 406.034 309.624C409.519 310.353 412.966 311.116 417.08 311.982C409.37 280.444 405.696 249.541 412.305 217M415.869 315.513C414.382 315.042 413.485 314.682 412.596 314.485C405.452 312.899 398.379 311.15 391.172 309.941C389.126 309.599 386.435 310.156 384.72 311.407C376.726 317.185 369.952 324.549 365.342 333.481C357.828 348.097 351.14 363.184 344.122 378.031C351.73 385.464 358.505 392.056 365.987 399.334C377.883 367.762 389.197 336.67 415.869 315.513ZM73.9338 336.901C99.0006 357.458 114.815 384.041 126.05 413.924C126.719 413.71 127.057 413.727 127.207 413.538C131.117 409.055 134.996 404.52 138.867 400.002C145.586 392.064 145.586 392.047 141.463 382.138C132.974 361.744 121.432 343.811 104.839 329.949C103.54 328.861 101.432 327.712 100.118 328.115C91.6757 330.686 83.3358 333.695 73.9338 336.901ZM271.888 90.5753C242.919 99.8849 214.681 103.185 185.672 90.3096C188.418 100.939 190.865 110.532 193.43 120.081C193.611 120.733 194.406 121.341 195.051 121.65C217.277 131.945 239.803 130.608 262.399 123.244C263.477 122.884 264.964 121.984 265.184 121.033C267.466 111.235 269.543 101.359 271.888 90.5753ZM353.044 132.194C337.812 129.502 323.768 125.173 310.597 117.861C297.537 110.575 286.239 100.794 275.594 88.9551L268.937 119.807C270.613 121.521 272.195 122.987 273.595 124.547C288.623 141.084 306.742 151.405 328.009 155.314C329.897 155.648 332.714 155.682 333.768 154.516C340.228 147.496 346.325 140.072 353.044 132.194ZM306.05 477.745C314.206 466.612 324.282 457.325 335.712 450.408C348.095 442.821 360.794 435.835 373.343 428.548C376.86 426.525 380.338 424.399 384.224 422.11C377.922 415.973 372.195 410.255 366.294 404.751C365.57 404.04 363.65 403.843 362.761 404.331C349.425 411.918 336.042 419.47 322.855 427.4C313.667 432.859 305.607 440.316 299.173 449.31C298.332 450.528 297.686 452.688 298.111 454C300.456 461.663 303.147 469.198 306.058 477.745M107.553 441.775C109.26 442.101 110.181 442.315 111.093 442.453C120.527 443.816 129.992 444.879 139.378 446.593C164.335 451.145 183.265 464.544 193.768 489.883C194.012 490.458 194.532 490.963 195.208 491.924C197.01 483.968 198.78 476.588 200.307 469.173C200.613 467.827 200.307 466.172 199.882 464.844C193.037 444.321 180.063 430.657 159.913 425.959C149.41 423.516 138.631 422.419 127.978 420.816C126.971 420.662 125.507 420.885 124.925 421.57C119.189 428.043 113.603 434.669 107.553 441.75M32.3839 232.542C41.9118 269.48 52.5648 305.355 42.3052 344.154C51.0385 341.179 58.8827 338.616 66.6403 335.761C67.4901 335.427 68.3162 333.464 68.3162 332.255C68.3476 325.234 68.623 318.162 67.8284 311.21C65.1455 287.662 62.0927 264.148 59.0636 240.626C58.9063 239.64 57.8127 238.234 56.9551 238.028C49.0873 236.159 41.1408 234.505 32.3839 232.585M292.336 447.579C289.205 438.381 286.325 429.714 283.21 421.15C282.824 420.07 281.164 418.956 280.015 418.827C273.745 418.193 267.458 417.096 261.266 417.533C247.828 418.459 235.617 424.459 222.95 428.711C214.311 431.626 209.701 436.495 208.78 446.19C208.198 452.414 206.215 458.5 204.72 465.289C213.603 461.698 221.636 458.226 229.819 455.157C246.522 448.908 263.43 443.55 281.502 445.71C284.933 446.104 288.308 446.867 292.336 447.579ZM295.979 448.068C313.343 424.065 339.512 415.501 362.1 400.534C355.475 394.079 349.221 387.907 342.848 381.863C342.171 381.22 340.432 380.972 339.638 381.435C327.356 388.584 314.885 395.442 303.068 403.354C297.505 407.083 293.076 412.835 288.41 417.927C287.49 418.922 287.041 421.305 287.443 422.651C289.984 430.863 292.856 438.955 295.979 448.068ZM202.399 460.309C204.382 451.428 206.278 443.078 208.08 434.695C208.261 433.88 207.993 432.903 207.718 432.063C202.683 416.101 193.548 404.126 177.797 399.78C168.757 397.302 159.386 396.205 150.102 394.773C148.82 394.593 146.986 395.768 145.948 396.899C142.218 400.945 138.694 405.223 135.137 409.441C133.06 411.901 131.046 414.43 128.631 417.361C136.499 418.476 143.556 419.427 150.582 420.49C173.572 423.996 191.495 435.158 201.141 458.774C201.298 459.109 201.668 459.374 202.399 460.309ZM129.488 167.563L128.237 168.266C125.586 196.821 115.476 221.792 96.0266 242.94C104.39 244.749 111.92 246.472 119.449 247.929C120.362 248.109 121.802 247.2 122.588 246.369C137.152 230.467 144.972 211.274 146.68 189.191C146.766 187.991 146.436 186.397 145.696 185.565C140.393 179.47 134.925 173.53 129.488 167.563ZM379.268 224.612C357.647 207.733 344.704 185.025 333.564 160.234C328.151 166.535 323.178 172.193 318.457 178.047C317.859 178.81 318.009 180.842 318.489 181.939C320.582 186.663 322.84 191.317 325.192 195.912C332.061 209.268 340.464 221.295 352.006 230.544C353.186 231.505 355.114 232.559 356.341 232.19C363.729 229.987 371.014 227.407 379.268 224.612ZM150.787 184.991C157.506 192.406 163.981 199.598 170.574 206.679C171.188 207.348 172.635 207.511 173.595 207.331C183.155 205.419 192.281 202.204 200.55 196.521C208.418 191.069 208.418 191.086 205.924 181.288L204.768 176.984C203.178 170.864 201.565 164.743 199.945 158.554C182.966 166.963 165.106 172.09 150.787 184.991ZM378.67 228.367C372.32 230.502 365.365 232.722 358.52 235.268C357.411 235.688 356.388 237.497 356.073 238.842C351.738 258.567 353.815 277.992 358.701 297.246C358.903 297.841 359.229 298.378 359.654 298.812C360.078 299.246 360.59 299.567 361.148 299.749C368.324 301.472 375.546 302.955 382.816 304.541C380.991 291.665 378.394 279.244 377.718 266.711C377.025 254.187 378.268 241.508 378.67 228.367ZM383.249 308.141C378.512 307.113 374.767 306.881 371.494 305.432C361.243 300.898 354.162 305.612 348.017 313.799C346.341 316.036 344.264 318.025 343.068 320.485C337.221 332.864 331.493 345.309 325.885 357.818C325.546 358.521 325.704 360.004 326.191 360.492C331.353 365.679 336.624 370.771 342.407 376.394C352.084 350.883 361.274 325.8 383.249 308.141ZM96.656 246.532C103.344 271.94 110.244 296.509 103.737 323.151C107.671 321.874 110.85 320.871 113.997 319.774C128.56 314.785 128.953 314.048 129.237 297.314C129.449 282.261 125.208 268.143 121.479 253.913C121.267 253.047 120.503 251.83 119.803 251.667C112.352 249.909 104.87 248.332 96.656 246.532ZM147.86 389.467C153.052 383.415 157.718 378.074 162.195 372.571C162.529 372.071 162.756 371.496 162.86 370.888C162.963 370.279 162.94 369.654 162.793 369.056C155.893 349.94 146.003 332.984 130.669 320.16C129.787 319.414 128.285 318.548 127.372 318.848C120.346 321.051 113.359 323.511 105.57 326.169C125.814 343.031 138.513 364.556 147.86 389.467ZM201.683 152.013C202.509 151.799 203.155 151.465 203.76 151.525C204.555 151.593 205.381 151.893 206.144 152.236C222.627 159.591 239.268 158.425 255.971 153.256C257.049 152.922 258.536 152.005 258.756 151.062C260.676 143.167 262.321 135.194 264.256 126.245C240.865 133.531 218.206 135.597 194.728 124.95C197.254 134.886 199.425 143.312 201.683 152.013ZM268.214 123.519L262.588 149.613C264.602 151.379 266.262 152.579 267.663 154.088C279.386 166.809 293.375 175.047 309.858 178.27C311.132 178.519 313.084 178.768 313.76 178.022C319.158 172.107 324.335 165.943 330.157 159.145C305.491 154.825 285.42 143.244 268.214 123.519ZM351.101 234.128C333.996 220.155 323.745 201.99 314.956 181.999C308.151 189.98 301.943 197.232 296.176 204.004L301.479 214.746C306.428 224.707 312.202 234.033 320.597 241.14C321.825 242.169 323.996 243.069 325.334 242.657C333.642 240.145 341.848 237.222 351.101 234.128ZM151.219 190.366C150.787 190.615 150.362 190.897 149.937 191.163C147.49 213.168 139.591 232.533 124.658 249.129C134.154 251.195 142.761 253.158 151.432 254.787C152.533 254.984 154.217 253.758 155.13 252.695C164.162 242.28 169.268 229.859 170.944 215.834C171.125 214.343 170.944 212.277 170.118 211.282C163.949 204.184 157.569 197.301 151.251 190.366M281.4 415.475C278.867 407.923 276.695 401.134 274.225 394.482C273.76 393.247 272.092 391.833 270.904 391.764C265.342 391.361 259.488 390.153 254.232 391.533C242.84 394.49 231.786 398.854 220.621 402.711C219.795 403.011 218.725 403.86 218.513 404.674C216.593 412.698 214.823 420.773 212.832 429.508C235.263 420.602 256.546 410.023 281.4 415.475ZM353.021 237.077C344.972 239.768 337.765 242.434 330.401 244.526C326.97 245.486 325.696 247.483 325.114 250.895C322.95 264.071 323.965 277.058 327.002 289.925C327.246 291.022 328.261 292.574 329.15 292.771C337.694 294.811 346.27 296.594 355.491 298.609C350.826 278.095 348.473 258.122 353.021 237.077ZM355.523 302.115C348.253 300.512 341.723 299.569 335.468 297.537C329.779 295.677 325.759 297.554 322.069 301.815C321.298 302.681 320.44 303.478 319.716 304.378C311.927 313.576 307.773 324.874 303.627 336.164C303.351 336.91 303.564 338.376 304.075 338.882C310.039 344.874 316.073 350.746 322.58 357.064C330.432 336.336 337.883 316.242 355.523 302.115ZM130.425 314.15C138.576 311.39 145.72 308.793 152.958 306.598C155.798 305.732 156.986 304.069 157.569 301.138C159.488 291.194 157.325 281.653 155.948 271.88C154.477 261.525 150.181 256.03 140.055 255.833C136.357 255.73 132.667 254.298 128.953 253.535C127.687 253.27 126.404 253.073 124.634 252.755C130.008 273.106 135.413 292.625 130.409 314.15M338.78 377.843C333.328 372.502 328.127 367.308 322.785 362.336C322.187 361.753 320.401 361.984 319.527 362.49C312.077 366.605 304.343 370.342 297.387 375.28C290.952 379.849 285.295 385.704 279.409 391.13C278.583 391.893 277.734 393.659 278.009 394.585C280.173 401.691 282.651 408.695 285.263 416.478C299.425 396.942 320.369 389.878 338.78 377.843ZM166.034 368.208C171.927 361.29 177.333 355.075 182.612 348.671C183.226 347.883 183.406 346.125 183.06 345.131C178.285 331.621 171.44 319.585 160.849 310.301C159.842 309.436 158.229 308.373 157.277 308.673C149.158 311.236 141.125 314.082 132.305 317.108C148.363 330.884 158.497 348.045 166.034 368.208ZM209.205 426.619C209.515 426.464 209.822 426.301 210.126 426.131C211.133 421.81 212.171 417.473 213.084 413.17C213.666 410.452 214.964 407.366 214.319 404.94C210.944 392.296 204.626 381.7 192.258 377.646C184.689 375.151 176.656 374.311 168.812 372.854C167.962 372.682 166.617 372.854 166.097 373.428C161.062 379.12 156.145 384.941 150.495 391.542C175.775 393.719 198.772 398.374 209.205 426.619ZM257.812 156.282C239.087 161.991 221.148 162.617 202.344 154.551L210.314 185.351C212.69 185.471 214.587 185.085 216.113 185.711C226.892 190.186 237.757 189.852 248.717 186.843C249.913 186.508 251.439 185.094 251.746 183.885C253.847 175.073 255.641 166.192 257.781 156.282M310.684 181.922C292.368 178.176 277.356 169.715 264.98 156.034C262.997 153.822 261.565 154.336 260.92 157.294C259 166.14 257.081 175.004 255.295 183.182C257.584 184.828 259.677 185.908 261.227 187.503C268.953 195.509 277.899 201.124 288.395 203.687C289.716 204.004 291.762 203.884 292.509 203.019C298.513 196.358 304.28 189.44 310.684 181.922ZM148.088 182.762C160.975 171.515 176.42 165.532 191.597 158.948C193.548 158.133 195.419 157.108 197.183 155.888C197.915 155.391 198.662 153.925 198.497 153.162C196.664 145.541 194.618 137.989 192.447 129.639C174.925 148.687 153.336 157.817 130.409 163.037C136.27 169.587 142.045 176.007 148.088 182.762ZM319.063 358.632C312.745 352.477 306.939 346.657 300.928 341.102C300.22 340.433 298.332 340.502 297.348 341.016C292.706 343.425 287.915 345.722 283.674 348.851C278.544 352.606 273.839 357.081 269.103 361.41C268.284 362.156 267.521 363.921 267.797 364.813C270.362 372.957 273.147 381.015 276.129 389.827C287.435 374.157 303.973 368.31 319.063 358.632ZM219.583 399.282C236.923 392.424 253.32 384.778 272.124 388.301C269.433 380.389 266.742 373.162 264.547 365.782C263.516 362.293 261.691 361.264 258.481 361.093C247.474 360.492 237.663 364.95 227.765 369.048C227.065 369.339 226.239 370.145 226.089 370.839C223.926 380.037 221.849 389.261 219.583 399.282ZM169.213 369.536C189.819 371.199 207.679 376.094 216.105 399.711C218.308 389.93 220.165 381.726 221.998 373.514C222.092 373.094 222.242 372.537 222.061 372.202C219.441 367.385 217.301 362.036 213.941 357.844C207.38 349.683 197.82 349.014 188.599 348.063C187.93 347.977 187.01 348.714 186.491 349.323C180.999 355.666 175.562 362.087 169.213 369.536ZM280.794 222.075L284.343 227.467C288.985 234.522 293.501 241.671 298.276 248.606C299.032 249.686 301.046 250.784 302.1 250.449C307.726 248.889 313.21 246.858 318.654 244.997C314.075 239.305 309.433 234.316 305.688 228.633C301.896 222.941 299 216.589 295.759 210.468C294.5 208.042 293.194 207.476 291.306 209.739C287.757 213.94 284.162 218.132 280.794 222.075ZM324.374 295.326C318.63 294.065 314.02 292.865 309.346 292.171C307.501 291.94 305.637 292.397 304.059 293.465C295.145 300.246 291.455 310.696 287.694 321.043C287.466 321.737 287.875 323.134 288.465 323.691C292.187 327.498 296.011 331.158 300.22 335.247C305.979 320.408 311.329 305.87 324.374 295.326ZM322.501 247.338C316.923 249.215 312.069 250.595 307.427 252.541C306.624 252.931 305.903 253.497 305.308 254.203C304.714 254.91 304.26 255.742 303.973 256.647C301.778 266.111 302.454 275.609 304.618 285.005C304.862 286.016 305.601 287.533 306.325 287.713C311.951 289.145 317.623 290.294 323.886 291.691C320.613 276.749 319.276 262.596 322.501 247.338ZM175.562 215.723L174.122 216.726C172.14 231.53 166.491 244.569 156.782 256.073C162.919 257.436 168.229 258.782 173.603 259.639C174.886 259.836 176.805 258.79 177.726 257.659C183.408 250.858 187.031 242.316 188.104 233.193C188.261 231.993 188.041 230.382 187.372 229.567C183.564 224.835 179.536 220.309 175.562 215.723ZM155.964 259.399C159.685 274.238 163.745 288.459 160.299 303.924C165.523 302.166 169.85 300.52 174.28 299.286C177.214 298.472 178.277 296.654 178.678 293.663C180.023 283.719 177.395 274.435 174.862 265.125C174.65 264.259 173.422 263.265 172.541 263.042C167.348 261.791 162.163 260.728 155.964 259.399ZM186.31 344.376C190.307 339.687 193.76 335.718 197.026 331.698C197.608 330.987 197.978 329.435 197.671 328.595C194.099 318.565 189.213 309.419 181.306 302.509C180.48 301.781 178.953 301.275 177.978 301.583C172.911 303.118 167.907 304.944 162.163 306.907C173.611 317.082 180.936 329.589 186.341 344.376M250.354 190.572C244.107 191.24 238.395 192.5 232.777 192.235C226.978 191.952 221.266 190.074 215.468 189.071C212.903 188.634 211.738 190.332 212.336 192.86C213.76 198.75 215.373 204.605 216.569 209.139C219.622 209.319 221.912 209.019 223.894 209.688C230.363 211.848 237.24 212.111 243.831 210.451C244.909 210.185 246.333 208.916 246.616 207.819C248.009 202.239 249.111 196.529 250.354 190.589M175.074 210.639C179.559 215.68 183.713 220.403 187.986 225.058C188.355 225.418 189.299 225.418 189.913 225.29C197.781 223.729 205.421 221.235 211.959 216.04C212.966 215.26 214.004 213.297 213.792 212.182C212.509 206.285 210.857 200.473 209.15 193.941C199.008 203.104 187.443 207.656 175.074 210.639ZM250.291 206.936C252.856 208.582 254.76 209.851 256.672 211.077C262.14 214.566 267.553 218.132 273.115 221.483C274.02 222.032 276.003 222.212 276.561 221.621C280.708 217.163 284.642 212.474 288.867 207.562C272.974 202.007 270.645 200.644 258.796 189.62C256.506 187.486 254.587 187.52 253.784 190.734C252.321 196.461 251.274 202.299 250.291 206.936ZM297.01 337.141C292.832 333.061 289.299 329.504 285.594 326.1C284.901 325.449 283.398 324.789 282.8 325.132C275.381 329.461 267.128 332.572 261.825 340.253C261.211 341.153 260.228 342.473 260.472 343.236C262.069 348.543 263.926 353.755 265.971 359.824C274.39 348.448 286.081 343.974 297.01 337.141ZM190.275 344.908C205.484 346.074 217.325 351.08 223.186 366.502C224.893 360.81 226.144 355.383 227.34 349.931C227.466 349.383 227.521 348.671 227.277 348.234C225.814 345.671 224.193 343.211 222.761 340.648C218.426 332.932 211.314 331.218 203.682 330.635C203.013 330.584 202.061 331.167 201.55 331.767C198.033 335.761 194.587 339.85 190.275 344.908ZM261.793 357.947C260.07 352.889 258.363 348.5 257.12 343.974C256.231 340.853 254.618 339.216 251.652 339.953C245.546 341.479 239.504 343.228 233.461 344.977C232.761 345.182 231.841 345.971 231.691 346.648C230.196 352.623 228.851 358.641 227.262 365.524C238.827 360.81 249.457 356.549 261.793 357.947ZM295.712 252.781C290.763 244.5 285.971 236.528 281.235 228.547C279.96 226.387 278.221 225.504 276.443 227.347C272.667 231.427 269.173 235.782 266.16 239.323C267.93 241.517 269.291 242.983 270.369 244.663C272.816 248.435 275.011 252.447 277.608 256.09C278.3 257.059 280.33 257.753 281.447 257.419C286.428 256.039 291.313 254.238 295.712 252.781ZM302.147 290.534C296.262 289.222 291.376 288.073 286.459 287.13C285.656 286.959 284.602 287.508 283.831 288.056C277.702 292.48 275.043 299.397 272.533 306.418C272.321 307.018 272.69 308.218 273.147 308.716C276.742 312.367 280.417 315.908 284.468 319.902C288.654 308.81 292.745 298.506 302.147 290.534ZM300.228 286.547V254.933C294.815 256.724 289.669 258.43 284.571 260.222C284.051 260.393 283.406 261.199 283.406 261.748C283.312 268.1 283.194 274.486 283.406 280.847C283.438 281.738 285.129 283.076 286.215 283.376C290.944 284.619 295.775 285.562 300.228 286.547ZM183.052 295.66C199.441 290.919 201.4 293.843 197.152 273.055C196.939 272.043 196.758 270.963 196.302 270.063C195.901 269.214 195.263 268.083 194.532 267.903C189.339 266.608 184.091 265.52 179.292 264.474C180.613 275.283 181.833 285.527 183.052 295.66ZM201.738 326.306C205.035 322.44 208.67 318.197 212.974 313.139C209.465 307.584 206.011 301.892 202.344 296.406C201.644 295.377 199.874 294.28 198.953 294.528C193.918 295.96 189 297.803 184.823 299.235C190.503 308.321 196.026 317.134 201.738 326.306ZM245.397 213.751C237.002 215.543 229.425 215.209 221.919 212.68C221.156 212.448 218.41 215.14 218.591 216.023C219.779 222.024 221.495 227.913 223.265 234.685C225.491 231.23 227.45 230.844 230.291 231.942C232.824 232.902 235.79 232.97 238.536 232.868C239.669 232.799 241.369 231.47 241.675 230.356C243.076 225.23 244.052 219.958 245.397 213.751ZM245.365 229.816C248.151 231.35 250.228 232.362 252.148 233.588C254.531 235.139 256.727 237.017 259.197 238.397C260.039 238.885 261.872 238.834 262.454 238.2C266.192 234.205 269.661 229.987 273.367 225.692C269.449 223.712 265.916 222.298 262.761 220.198C259.567 218.106 256.813 215.243 253.753 212.894C251.4 211.111 249.354 211.728 248.623 214.737C247.325 220.078 246.31 225.478 245.365 229.816ZM180.975 261.251C183.202 261.748 186.05 262.416 188.843 263.034C198.678 265.211 200.259 264.251 203.65 253.938C204.044 252.678 204.476 251.375 204.594 250.064C204.689 249.112 204.563 247.818 204.044 247.192C200.196 242.717 196.262 238.38 192.69 234.402C188.662 243.66 184.901 252.207 180.936 261.251M258.206 337.03C265.908 331.689 273.202 326.649 280.794 321.36C277.199 317.871 273.65 314.348 269.96 311.022C269.347 310.456 267.702 310.353 267.057 310.824C262.785 313.859 258.67 317.065 254.579 320.331C253.965 320.82 253.32 322.131 253.501 322.791C254.996 327.678 256.687 332.53 258.206 337.03ZM192.203 229.199C196.034 233.373 199.984 237.719 204.012 241.989C204.414 242.383 205.295 242.657 205.814 242.486C209.937 241.123 214.059 239.777 218.056 238.045C218.882 237.685 219.795 235.654 219.583 234.651C218.395 229.181 216.853 223.789 215.554 218.886C207.687 222.366 200.015 225.761 192.203 229.199ZM227.773 343.314C228.143 343.262 228.473 343.211 228.812 343.142L232.69 326.066C231.133 324.583 230.063 323.88 229.417 322.903C228.379 321.351 227.773 319.397 226.64 317.948C224.075 314.639 218.119 312.642 216.262 314.605C212.628 318.394 209.299 322.534 205.271 327.249C216.081 328.415 223.831 332.941 227.773 343.314ZM254.059 335.53C252.863 331.938 251.707 327.978 250.157 324.206C249.449 322.577 247.742 319.962 246.86 320.125C243.43 320.76 238.434 321.308 237.183 323.751C234.681 328.612 234.248 334.698 232.911 340.553C240.259 338.813 246.978 337.236 254.059 335.53ZM275.098 259.545C272.313 254.77 269.937 250.415 267.309 246.189C265.712 243.557 263.556 242.546 261.148 245.195C258.859 247.758 256.695 250.484 254.524 253.073C256.199 254.273 258.025 255.001 258.945 256.399C263.524 263.419 263.43 263.505 271.164 260.942C272.47 260.488 273.776 260.008 275.098 259.545ZM268.654 304.249C272.407 297.812 275.893 291.811 279.583 285.442C276.034 284.91 271.392 282.647 268.654 284.207C265.287 286.085 262.997 290.928 261.321 294.983C260.834 296.2 263.886 299.175 265.468 301.206C266.459 302.432 267.734 303.401 268.654 304.249ZM204.476 292.488L215.342 310.216C218.056 307.027 220.621 303.975 223.155 301.026C221.235 297.546 219.614 294.254 217.568 291.254C216.868 290.191 215.004 289.231 213.871 289.462C210.676 290.122 207.561 291.442 204.476 292.488ZM202.824 289.265C204.138 288.862 205.609 288.416 207.041 287.919C214.83 285.27 215.255 284.576 213.147 276.226C212.683 274.435 211.652 271.983 210.307 271.434C207.128 270.14 203.619 269.789 200.165 269.077C201.085 275.926 201.912 282.339 202.824 289.265ZM279.244 281.798V262.056L267.301 265.982C267.238 267.577 267.238 268.743 267.12 269.909C266.247 278.995 266.215 278.995 274.602 280.89C276.097 281.207 277.6 281.481 279.244 281.798ZM240.259 237.068C236.137 236.416 232.533 235.405 228.993 235.534C227.403 235.568 224.476 238.062 224.594 239.142C225.051 243.266 226.514 247.243 227.246 250.072C230.487 249.712 232.832 249.592 235.098 249.086C236.168 248.838 237.734 248.075 238.033 247.158C239.008 243.943 239.528 240.566 240.259 237.068ZM265.57 306.975C256.813 298.129 258.088 295.351 247.804 306.29C249.024 309.736 250.299 313.259 251.557 316.825L265.57 306.975ZM258.67 242.803C255.334 240.231 252.509 237.531 249.236 235.739C247.946 235.036 244.508 235.825 244.138 236.802C242.793 240.548 242.281 244.637 241.754 247.243C245.326 248.906 248.04 250.141 251.156 251.538L258.67 242.803ZM220.716 309.238C225.177 312.95 229.236 316.302 233.816 320.117C234.76 316.173 235.798 311.99 236.498 308.99C234.665 307.095 233.233 306.067 232.376 304.635C230.023 300.675 228.379 300.375 225.381 303.795C223.682 305.767 221.967 307.755 220.716 309.238ZM208.599 250.947C206.034 256.639 204.052 260.993 201.88 265.777C205.484 266.557 208.993 267.637 212.509 267.843C213.729 267.946 215.499 266.051 216.168 264.602C216.782 263.351 216.75 261.028 216.019 259.93C213.91 256.827 211.314 254.136 208.599 250.947ZM221.235 240.78C216.742 242.571 212.714 244.183 208.654 245.837C208.324 246.42 207.985 247.02 207.616 247.621C209.575 249.086 211.676 250.312 213.383 252.01C217.93 256.587 217.836 256.664 224.374 253.141L221.235 240.78ZM247.309 315.822C246.121 312.316 245.114 309.247 243.981 306.221C243.768 305.664 242.926 304.824 242.58 304.944C241.904 305.158 241.015 305.801 240.834 306.461C239.827 310.121 239.016 313.808 238.025 318.042L247.309 315.822ZM228.347 271.297C232.014 269.506 235.185 266.977 238.638 266.505C242.155 266.06 245.9 267.654 249.543 268.331C241.723 260.668 230.063 262.554 228.347 271.297ZM258.914 264.834L259.819 263.316C257.332 261.182 254.964 258.67 252.132 257.247C251.329 256.844 249.103 259.69 247.214 261.336C249.315 262.348 251.203 262.588 251.668 263.565C253.69 267.911 256.317 265.88 258.914 264.834ZM263.398 282.639C258.882 280.778 256.994 281.661 254.61 285.999C252.446 289.942 255.177 291.142 257.364 292.96C259.465 289.394 261.416 286.016 263.398 282.639ZM229.543 293.071C228.41 291.057 227.71 288.399 226.097 287.259C224.571 286.23 222.069 286.796 218.985 286.582C220.81 289.531 221.856 291.065 222.769 292.685C225.814 298.18 225.908 298.197 229.543 293.071ZM217.789 284.036C220.503 283.059 223.737 283.547 223.312 278.892C222.919 274.255 220.716 272.523 216.38 272.995C216.837 276.552 217.293 280.015 217.789 284.036ZM257.207 269.3C258.387 277.855 258.387 277.855 263.768 277.581C263.367 274.452 262.997 271.357 262.627 268.271C260.802 268.623 258.977 268.974 257.207 269.3ZM237.301 254.204C236.75 253.458 236.199 252.712 235.625 251.992C233.579 252.97 230.739 253.407 229.732 255.087C228.851 256.604 229.945 259.476 230.188 261.756C230.739 261.893 231.321 262.022 231.864 262.142C233.697 259.493 235.499 256.827 237.301 254.204ZM244.272 296.149C245.169 297.914 245.932 299.517 246.821 301.24L253.871 295.926C250.598 289.428 247.647 293.5 244.272 296.149ZM238.796 258.627L240.267 260.196C242.919 258.73 245.609 257.273 248.261 255.79C248.135 255.061 247.985 254.341 247.867 253.613C245.877 253.313 243.438 252.121 242.069 252.944C240.472 253.904 239.827 256.647 238.796 258.627ZM239.339 297.477C237.096 296.449 235.405 295.651 233.328 294.691L230.668 297.914C232.926 299.68 234.886 301.172 236.805 302.672C237.726 300.812 238.615 298.96 239.339 297.477ZM226.766 264.714L225.609 256.93C223.776 257.796 222.494 258.379 220.637 259.245C222.706 261.088 224.138 262.382 226.766 264.714ZM224.351 270.466L224.901 269.069C223.501 267.517 222.092 265.957 220.385 264.028C219.504 266.12 218.922 267.534 218.159 269.3L224.351 270.466Z" fill="#BEBCB0"/>
</svg>
