<svg width="48" height="48" viewBox="0 0 48 48" fill="none" xmlns="http://www.w3.org/2000/svg">
<path d="M45 40.8516V24.6188C45.0001 23.4895 44.7668 22.372 44.3144 21.3348C43.8619 20.2976 43.1998 19.3626 42.3687 18.587L26.8854 4.13394C26.1056 3.40574 25.0731 3 24 3C22.9269 3 21.8944 3.40574 21.1146 4.13394L5.6313 18.587C4.80017 19.3626 4.1381 20.2976 3.68565 21.3348C3.23319 22.372 2.99988 23.4895 3 24.6188V40.8516C3 41.9518 3.4425 43.007 4.23015 43.785C5.0178 44.5629 6.08609 45 7.2 45H40.8C41.9139 45 42.9822 44.5629 43.7698 43.785C44.5575 43.007 45 41.9518 45 40.8516Z" stroke="#E85A4F" stroke-width="5" stroke-linecap="round" stroke-linejoin="round"/>
</svg>
