<svg width="28" height="28" viewBox="0 0 28 28" fill="none" xmlns="http://www.w3.org/2000/svg">
<path d="M28 14C28 10.287 26.525 6.72601 23.8995 4.10051C21.274 1.475 17.713 0 14 0C10.287 0 6.72601 1.475 4.10051 4.10051C1.475 6.72601 0 10.287 0 14C0 17.713 1.475 21.274 4.10051 23.8995C6.72601 26.525 10.287 28 14 28C17.713 28 21.274 26.525 23.8995 23.8995C26.525 21.274 28 17.713 28 14ZM14.875 20.125C14.875 20.3571 14.7828 20.5796 14.6187 20.7437C14.4546 20.9078 14.2321 21 14 21C13.7679 21 13.5454 20.9078 13.3813 20.7437C13.2172 20.5796 13.125 20.3571 13.125 20.125V9.98725L9.3695 13.7445C9.2052 13.9088 8.98236 14.0011 8.75 14.0011C8.51764 14.0011 8.2948 13.9088 8.1305 13.7445C7.9662 13.5802 7.87389 13.3574 7.87389 13.125C7.87389 12.8926 7.9662 12.6698 8.1305 12.5055L13.3805 7.2555C13.4618 7.17401 13.5583 7.10936 13.6646 7.06525C13.7709 7.02114 13.8849 6.99844 14 6.99844C14.1151 6.99844 14.2291 7.02114 14.3354 7.06525C14.4417 7.10936 14.5382 7.17401 14.6195 7.2555L19.8695 12.5055C20.0338 12.6698 20.1261 12.8926 20.1261 13.125C20.1261 13.3574 20.0338 13.5802 19.8695 13.7445C19.7052 13.9088 19.4824 14.0011 19.25 14.0011C19.0176 14.0011 18.7948 13.9088 18.6305 13.7445L14.875 9.98725V20.125Z" fill="#EAE7DC"/>
</svg>
